<?xml version="1.0" encoding="UTF-8"?>
<svg id="Capa_2" data-name="Capa 2" xmlns="http://www.w3.org/2000/svg" viewBox="0 0 84.31 34.07">
  <defs>
    <style>
      .cls-1 {
        fill: #cbd620;
      }
    </style>
  </defs>
  <g id="Capa_1-2" data-name="Capa 1">
    <g>
      <g>
        <path class="cls-1" d="M5.81,33.56h1.18v.46h-1.76v-3.5h.57v3.03Z"/>
        <path class="cls-1" d="M7.46,31.88c.12-.21.27-.38.47-.5.2-.12.42-.18.66-.18.22,0,.41.04.57.13.16.09.29.19.39.32v-.4h.58v2.77h-.58v-.41c-.1.13-.23.24-.4.33-.17.09-.36.13-.57.13-.24,0-.46-.06-.65-.18-.2-.12-.35-.29-.47-.51-.12-.22-.17-.47-.17-.75s.06-.52.17-.74ZM9.43,32.14c-.08-.14-.18-.25-.31-.32-.13-.07-.27-.11-.41-.11s-.29.04-.41.11c-.13.07-.23.18-.31.32s-.12.3-.12.5.04.36.12.5c.08.14.18.25.31.33.13.08.27.11.41.11s.29-.04.41-.11c.13-.07.23-.18.31-.32.08-.14.12-.31.12-.5s-.04-.36-.12-.5Z"/>
        <path class="cls-1" d="M12.17,31.88c.12-.22.28-.38.48-.5.2-.12.44-.18.7-.18.33,0,.61.08.83.24.22.16.37.39.45.68h-.62c-.05-.14-.13-.24-.24-.32-.11-.08-.25-.12-.42-.12-.23,0-.42.08-.56.25-.14.17-.21.4-.21.7s.07.53.21.7c.14.17.33.25.56.25.33,0,.55-.15.66-.44h.62c-.08.28-.23.51-.45.67-.22.17-.5.25-.83.25-.26,0-.5-.06-.7-.18s-.36-.29-.48-.5c-.12-.22-.17-.47-.17-.75s.06-.54.17-.75Z"/>
        <path class="cls-1" d="M16.12,31.32c.14-.08.3-.12.5-.12v.59h-.15c-.22,0-.39.06-.51.17-.12.11-.17.31-.17.59v1.46h-.57v-2.77h.57v.4c.08-.14.2-.25.33-.33Z"/>
        <path class="cls-1" d="M19.66,32.85h-2.12c.02.22.1.4.25.53s.33.2.54.2c.31,0,.53-.13.65-.39h.62c-.08.25-.24.46-.46.63s-.49.24-.82.24c-.26,0-.5-.06-.71-.18s-.37-.29-.49-.5-.18-.47-.18-.75.06-.54.17-.75c.12-.22.28-.38.49-.5.21-.12.45-.18.72-.18s.49.06.7.17c.2.11.36.27.48.48.11.21.17.44.17.71,0,.1,0,.2-.02.28ZM19.08,32.39c0-.21-.08-.38-.23-.51-.15-.13-.33-.19-.55-.19-.2,0-.37.06-.51.19-.14.13-.22.3-.25.51h1.53Z"/>
        <path class="cls-1" d="M20.22,31.88c.12-.21.27-.38.47-.5.2-.12.42-.18.66-.18.22,0,.41.04.57.13.16.09.29.19.39.32v-.4h.58v2.77h-.58v-.41c-.1.13-.23.24-.4.33-.17.09-.36.13-.57.13-.24,0-.46-.06-.65-.18-.2-.12-.35-.29-.47-.51-.12-.22-.17-.47-.17-.75s.06-.52.17-.74ZM22.2,32.14c-.08-.14-.18-.25-.31-.32-.13-.07-.27-.11-.41-.11s-.29.04-.41.11c-.13.07-.23.18-.31.32s-.12.3-.12.5.04.36.12.5c.08.14.18.25.31.33.13.08.27.11.41.11s.29-.04.41-.11c.13-.07.23-.18.31-.32.08-.14.12-.31.12-.5s-.04-.36-.12-.5Z"/>
        <path class="cls-1" d="M24.32,31.72v1.53c0,.1.02.18.07.22.05.05.13.07.25.07h.35v.48h-.45c-.26,0-.46-.06-.59-.18s-.21-.32-.21-.59v-1.53h-.33v-.47h.33v-.69h.58v.69h.67v.47h-.67Z"/>
        <path class="cls-1" d="M25.55,30.78c-.07-.07-.11-.16-.11-.26s.04-.19.11-.26.16-.11.26-.11.19.04.26.11.11.16.11.26-.04.19-.11.26c-.07.07-.16.11-.26.11s-.19-.04-.26-.11ZM26.1,31.25v2.77h-.57v-2.77h.57Z"/>
        <path class="cls-1" d="M27.92,33.51l.79-2.26h.61l-1.06,2.77h-.68l-1.05-2.77h.61l.78,2.26Z"/>
        <path class="cls-1" d="M29.78,30.78c-.07-.07-.11-.16-.11-.26s.04-.19.11-.26.16-.11.26-.11.19.04.26.11.11.16.11.26-.04.19-.11.26c-.07.07-.16.11-.26.11s-.19-.04-.26-.11ZM30.32,31.25v2.77h-.57v-2.77h.57Z"/>
        <path class="cls-1" d="M31.06,31.88c.12-.21.27-.38.47-.5.2-.12.42-.18.67-.18.18,0,.36.04.54.12s.32.18.42.31v-1.34h.58v3.72h-.58v-.42c-.09.13-.22.24-.39.33-.17.09-.36.13-.57.13-.24,0-.46-.06-.66-.18-.2-.12-.36-.29-.47-.51-.12-.22-.17-.47-.17-.75s.06-.52.17-.74ZM33.03,32.14c-.08-.14-.18-.25-.31-.32-.13-.07-.27-.11-.41-.11s-.29.04-.41.11c-.13.07-.23.18-.31.32s-.12.3-.12.5.04.36.12.5c.08.14.18.25.31.33.13.08.27.11.41.11s.29-.04.41-.11c.13-.07.23-.18.31-.32.08-.14.12-.31.12-.5s-.04-.36-.12-.5Z"/>
        <path class="cls-1" d="M34.47,31.88c.12-.21.27-.38.47-.5.2-.12.42-.18.66-.18.22,0,.41.04.57.13.16.09.29.19.39.32v-.4h.58v2.77h-.58v-.41c-.1.13-.23.24-.4.33-.17.09-.36.13-.57.13-.24,0-.46-.06-.65-.18-.2-.12-.35-.29-.47-.51-.12-.22-.17-.47-.17-.75s.06-.52.17-.74ZM36.44,32.14c-.08-.14-.18-.25-.31-.32-.13-.07-.27-.11-.41-.11s-.29.04-.41.11c-.13.07-.23.18-.31.32s-.12.3-.12.5.04.36.12.5c.08.14.18.25.31.33.13.08.27.11.41.11s.29-.04.41-.11c.13-.07.23-.18.31-.32.08-.14.12-.31.12-.5s-.04-.36-.12-.5Z"/>
        <path class="cls-1" d="M37.88,31.88c.12-.21.27-.38.47-.5.2-.12.42-.18.67-.18.18,0,.36.04.54.12s.32.18.42.31v-1.34h.58v3.72h-.58v-.42c-.09.13-.22.24-.39.33-.17.09-.36.13-.57.13-.24,0-.46-.06-.66-.18-.2-.12-.36-.29-.47-.51-.12-.22-.17-.47-.17-.75s.06-.52.17-.74ZM39.85,32.14c-.08-.14-.18-.25-.31-.32-.13-.07-.27-.11-.41-.11s-.29.04-.41.11c-.13.07-.23.18-.31.32s-.12.3-.12.5.04.36.12.5c.08.14.18.25.31.33.13.08.27.11.41.11s.29-.04.41-.11c.13-.07.23-.18.31-.32.08-.14.12-.31.12-.5s-.04-.36-.12-.5Z"/>
        <path class="cls-1" d="M44.6,31.34c.17.09.31.22.41.4.1.18.15.39.15.64v1.63h-.57v-1.55c0-.25-.06-.44-.19-.57-.12-.13-.29-.2-.51-.2s-.38.07-.51.2c-.13.13-.19.32-.19.57v1.55h-.57v-2.77h.57v.32c.09-.11.21-.2.36-.27.15-.06.3-.1.46-.1.22,0,.41.05.59.14Z"/>
        <path class="cls-1" d="M48.4,32.85h-2.12c.02.22.1.4.25.53s.33.2.54.2c.31,0,.53-.13.65-.39h.62c-.08.25-.24.46-.46.63s-.49.24-.82.24c-.26,0-.5-.06-.71-.18s-.37-.29-.49-.5-.18-.47-.18-.75.06-.54.17-.75c.12-.22.28-.38.49-.5.21-.12.45-.18.72-.18s.49.06.7.17c.2.11.36.27.48.48.11.21.17.44.17.71,0,.1,0,.2-.02.28ZM47.82,32.39c0-.21-.08-.38-.23-.51-.15-.13-.33-.19-.55-.19-.2,0-.37.06-.51.19-.14.13-.22.3-.25.51h1.53Z"/>
        <path class="cls-1" d="M48.96,31.88c.12-.22.28-.38.48-.5.2-.12.44-.18.7-.18.33,0,.61.08.83.24.22.16.37.39.45.68h-.62c-.05-.14-.13-.24-.24-.32-.11-.08-.25-.12-.42-.12-.23,0-.42.08-.56.25-.14.17-.21.4-.21.7s.07.53.21.7c.14.17.33.25.56.25.33,0,.55-.15.66-.44h.62c-.08.28-.23.51-.45.67-.22.17-.5.25-.83.25-.26,0-.5-.06-.7-.18s-.36-.29-.48-.5c-.12-.22-.17-.47-.17-.75s.06-.54.17-.75Z"/>
        <path class="cls-1" d="M54.52,32.85h-2.12c.02.22.1.4.25.53s.33.2.54.2c.31,0,.53-.13.65-.39h.62c-.08.25-.24.46-.46.63s-.49.24-.82.24c-.26,0-.5-.06-.71-.18s-.37-.29-.49-.5-.18-.47-.18-.75.06-.54.17-.75c.12-.22.28-.38.49-.5.21-.12.45-.18.72-.18s.49.06.7.17c.2.11.36.27.48.48.11.21.17.44.17.71,0,.1,0,.2-.02.28ZM53.94,32.39c0-.21-.08-.38-.23-.51-.15-.13-.33-.19-.55-.19-.2,0-.37.06-.51.19-.14.13-.22.3-.25.51h1.53Z"/>
        <path class="cls-1" d="M55.52,33.95c-.17-.08-.31-.19-.41-.32-.1-.14-.15-.29-.16-.46h.59c.01.12.07.22.17.29s.23.12.38.12.29-.03.38-.09.13-.14.13-.24c0-.1-.05-.18-.15-.23s-.26-.11-.47-.17c-.21-.06-.38-.11-.51-.17-.13-.05-.24-.14-.34-.25-.1-.11-.14-.26-.14-.44,0-.15.04-.28.13-.41.09-.12.21-.22.38-.29.16-.07.35-.11.56-.11.32,0,.57.08.76.24.19.16.3.38.31.65h-.57c0-.12-.06-.22-.15-.3-.09-.07-.21-.11-.37-.11s-.27.03-.35.09-.12.13-.12.23c0,.07.03.14.08.19s.12.09.2.12c.08.03.19.06.34.11.2.05.37.11.5.16.13.06.24.14.33.24.09.11.14.25.15.43,0,.16-.04.3-.13.42s-.21.22-.37.29c-.16.07-.35.11-.56.11s-.41-.04-.59-.12Z"/>
        <path class="cls-1" d="M57.82,30.78c-.07-.07-.11-.16-.11-.26s.04-.19.11-.26.16-.11.26-.11.19.04.26.11.11.16.11.26-.04.19-.11.26c-.07.07-.16.11-.26.11s-.19-.04-.26-.11ZM58.36,31.25v2.77h-.57v-2.77h.57Z"/>
        <path class="cls-1" d="M59.78,31.72v1.53c0,.1.02.18.07.22.05.05.13.07.25.07h.35v.48h-.45c-.26,0-.46-.06-.59-.18s-.21-.32-.21-.59v-1.53h-.33v-.47h.33v-.69h.58v.69h.67v.47h-.67Z"/>
        <path class="cls-1" d="M60.97,31.88c.12-.21.27-.38.47-.5.2-.12.42-.18.66-.18.22,0,.41.04.57.13.16.09.29.19.39.32v-.4h.58v2.77h-.58v-.41c-.1.13-.23.24-.4.33-.17.09-.36.13-.57.13-.24,0-.46-.06-.65-.18-.2-.12-.35-.29-.47-.51-.12-.22-.17-.47-.17-.75s.06-.52.17-.74ZM62.94,32.14c-.08-.14-.18-.25-.31-.32-.13-.07-.27-.11-.41-.11s-.29.04-.41.11c-.13.07-.23.18-.31.32s-.12.3-.12.5.04.36.12.5c.08.14.18.25.31.33.13.08.27.11.41.11s.29-.04.41-.11c.13-.07.23-.18.31-.32.08-.14.12-.31.12-.5s-.04-.36-.12-.5Z"/>
        <path class="cls-1" d="M66.77,33.51l.79-2.26h.61l-1.06,2.77h-.68l-1.05-2.77h.61l.78,2.26Z"/>
        <path class="cls-1" d="M68.58,31.88c.12-.21.27-.38.47-.5.2-.12.42-.18.66-.18.22,0,.41.04.57.13.16.09.29.19.39.32v-.4h.58v2.77h-.58v-.41c-.1.13-.23.24-.4.33-.17.09-.36.13-.57.13-.24,0-.46-.06-.65-.18-.2-.12-.35-.29-.47-.51-.12-.22-.17-.47-.17-.75s.06-.52.17-.74ZM70.56,32.14c-.08-.14-.18-.25-.31-.32-.13-.07-.27-.11-.41-.11s-.29.04-.41.11c-.13.07-.23.18-.31.32s-.12.3-.12.5.04.36.12.5c.08.14.18.25.31.33.13.08.27.11.41.11s.29-.04.41-.11c.13-.07.23-.18.31-.32.08-.14.12-.31.12-.5s-.04-.36-.12-.5Z"/>
        <path class="cls-1" d="M72.58,30.3v3.72h-.57v-3.72h.57Z"/>
        <path class="cls-1" d="M73.83,33.89c-.21-.12-.38-.29-.5-.5-.12-.22-.18-.47-.18-.75s.06-.53.19-.75c.12-.22.29-.39.51-.5.21-.12.46-.18.72-.18s.5.06.72.18c.21.12.38.29.51.5.12.22.19.47.19.75s-.06.53-.19.75c-.13.22-.3.39-.52.51s-.46.18-.73.18-.5-.06-.71-.18ZM74.95,33.46c.13-.07.23-.18.31-.32.08-.14.12-.31.12-.51s-.04-.37-.12-.51-.18-.24-.31-.31c-.13-.07-.26-.11-.41-.11s-.28.04-.41.11-.23.18-.3.31c-.07.14-.11.31-.11.51,0,.3.08.53.23.69.15.16.34.24.58.24.15,0,.29-.04.42-.11Z"/>
        <path class="cls-1" d="M77.45,31.32c.14-.08.3-.12.5-.12v.59h-.15c-.22,0-.39.06-.51.17-.12.11-.17.31-.17.59v1.46h-.57v-2.77h.57v.4c.08-.14.2-.25.33-.33Z"/>
        <path class="cls-1" d="M78.45,33.95c-.07-.07-.11-.16-.11-.26s.04-.19.11-.26c.07-.07.16-.11.26-.11s.19.04.26.11c.07.07.11.16.11.26s-.04.19-.11.26-.16.11-.26.11-.19-.04-.26-.11Z"/>
      </g>
      <path class="cls-1" d="M83.95,22.09s0,0,.01-.01l-.14-.23-1.78-3.49c-.06.07-.35-.08-.35-.08-.08.1-.22.31-.41.63-.12.19-.26.38-.42.56-.02.01-.04.03-.05.04-.46.35-.89.53-1.31.53-.26,0-.49-.05-.69-.16s-.44-.27-.72-.51c-.42-.34-.83-.61-1.23-.8-.4-.2-.93-.29-1.59-.29-1.26,0-2.62.68-4.07,2.04-.18.15-.35.3-.52.47v.03s0,0,0,.01l.14.23,1.78,3.49c.06-.07.35.08.35.08.08-.1.22-.31.41-.63.12-.19.26-.38.42-.56.02-.01.04-.03.05-.04.46-.35.89-.53,1.31-.53.26,0,.49.05.69.16s.44.27.72.51c.42.34.83.61,1.23.8s.93.29,1.59.29c1.26,0,2.62-.68,4.07-2.04.18-.15.35-.3.52-.47v-.03Z"/>
      <g>
        <path class="cls-1" d="M15.64,20.72c0-.64-.12-1.27-.37-1.86-.25-.59-.6-1.12-1.06-1.56-.96-.94-2.11-1.41-3.4-1.41h-4.25c-1.19,0-2.23.41-3.1,1.23v-3.52H0v1.79h1.66v9.84H0v1.69h5.13v-1.69h-1.68l.02-4.51c.01-.92.3-1.67.86-2.22.56-.55,1.31-.83,2.22-.83h4.25c.54,0,1.05.14,1.51.41.46.27.83.65,1.1,1.11.27.47.41.98.41,1.52v4.51h-1.64v1.69h5.09v-1.69h-1.64v-4.51Z"/>
        <path class="cls-1" d="M24.73,15.89h-2.67c-.87,0-1.69.22-2.44.66-.74.44-1.34,1.03-1.77,1.77-.43.74-.65,1.55-.65,2.43v1.41c0,.87.22,1.69.65,2.44.43.74,1.02,1.34,1.77,1.78.74.44,1.56.66,2.44.66h0l4.5-.02c.34,0,.64-.09.91-.28v.2h1.92v-3.05h-1.85v.14c0,.29-.08.56-.23.79-.14.22-.35.33-.64.33h-4.62c-.84,0-1.55-.24-2.1-.7-.55-.46-.85-1.06-.88-1.78l-.02-.27,10.67-.04v-1.63c0-1.57-.43-2.78-1.29-3.6-.86-.82-2.1-1.23-3.69-1.23ZM22.06,17.68h2.92c.95,0,1.68.26,2.18.76.5.5.75,1.16.75,1.94v.16h-8.84c.08-.81.38-1.49.89-2.02.54-.56,1.24-.84,2.1-.84Z"/>
        <path class="cls-1" d="M34.34,17.18v-1.2h-3.45v1.79h1.66v7.44h-1.66v1.79h5.13v-1.79h-1.66v-4.42c0-.54.14-1.06.42-1.54.28-.48.66-.87,1.12-1.15.46-.28.97-.43,1.52-.43h3.44v-1.79h-3.44c-1.23,0-2.27.43-3.08,1.29Z"/>
        <path class="cls-1" d="M55.17,15.89h-1.79v1.18c-.35-.33-.76-.6-1.22-.8-.58-.25-1.19-.38-1.8-.38h-4.25c-.88,0-1.7.21-2.44.64-.73.42-1.32,1.01-1.75,1.74-.43.73-.66,1.55-.67,2.43-.03.64-.04,1.12-.04,1.44,0,.87.22,1.69.65,2.44.43.74,1.02,1.34,1.77,1.78.74.44,1.56.66,2.44.66h4.25c.63,0,1.24-.14,1.82-.4.47-.22.88-.5,1.24-.84v1.16h3.53v-1.71h-1.74v-9.33ZM50.31,25.19h-4.25c-.54,0-1.05-.14-1.52-.41s-.84-.65-1.11-1.11c-.27-.46-.41-.98-.41-1.52,0-.62,0-1.09.02-1.41.01-.57.16-1.1.43-1.56.27-.47.64-.84,1.09-1.1.45-.27.97-.4,1.54-.4h4.25c.54,0,1.05.14,1.51.41.46.27.83.64,1.1,1.1.27.46.41.97.41,1.51,0,.63,0,1.11-.02,1.43,0,.56-.14,1.08-.41,1.54-.27.47-.64.84-1.1,1.11-.46.27-.97.41-1.53.41Z"/>
        <path class="cls-1" d="M67.67,24.02c0,.29-.08.56-.23.79-.14.22-.35.33-.64.33h-4.63c-.53,0-1.03-.13-1.49-.4s-.83-.63-1.09-1.08c-.27-.45-.4-.95-.4-1.48v-1.43c0-.53.13-1.03.4-1.49.26-.46.63-.83,1.09-1.09.46-.27.96-.4,1.49-.4h4.62c.28,0,.49.11.63.34.16.24.24.51.24.8v.14h1.85v-3.05h-1.9v.21c-.12-.07-.26-.12-.43-.17-.3-.09-.55-.13-.78-.13h-4.21c-.89,0-1.71.22-2.46.65s-1.35,1.02-1.79,1.76c-.44.74-.66,1.56-.66,2.45v1.43c0,.89.22,1.71.67,2.45.44.74,1.05,1.33,1.8,1.76.75.43,1.58.65,2.46.65h0l4.35-.02c.42,0,.77-.1,1.06-.28v.21h1.92v-3.05h-1.85v.14Z"/>
        <path class="cls-1" d="M83.65,18.31c-.44-.74-1.03-1.33-1.77-1.77-.74-.44-1.55-.66-2.43-.66h-4.25c-.89,0-1.7.21-2.43.64-.72.42-1.31,1.01-1.74,1.74-.43.73-.66,1.55-.67,2.43-.03.64-.04,1.12-.04,1.46,0,.86.22,1.67.66,2.42.44.74,1.03,1.34,1.77,1.78.74.44,1.55.66,2.41.66h4.25c.88,0,1.7-.21,2.44-.64.73-.42,1.32-1.01,1.75-1.74.43-.73.66-1.56.67-2.45.03-.64.04-1.12.04-1.44,0-.87-.22-1.69-.66-2.43ZM80.96,24.8c-.45.27-.97.41-1.54.41h-4.25c-.54,0-1.05-.14-1.51-.41-.46-.27-.83-.65-1.1-1.11-.27-.47-.41-.98-.41-1.52,0-.63,0-1.11.02-1.43.01-.56.15-1.08.42-1.54.27-.47.63-.84,1.09-1.11.46-.27.97-.41,1.53-.41h4.25c.54,0,1.06.14,1.53.41.47.27.85.65,1.12,1.11.27.47.41.98.41,1.52,0,.3-.01.77-.04,1.41-.01.57-.16,1.1-.43,1.56-.27.47-.64.84-1.1,1.11Z"/>
      </g>
      <g>
        <path class="cls-1" d="M31.14.3h-.01s0,.01,0,.01l-.04.04c.38.4.88,1.11,1.09,1.55l.03.06.05-.03.43-.32c-.25-.49-.74-1.17-1.21-1.59l-.33.3Z"/>
        <path class="cls-1" d="M30.98,2.26l.03.06.05-.04.42-.34c-.25-.5-.72-1.19-1.18-1.6l-.34.31h-.02s0,.01,0,.01l-.04.04c.38.39.86,1.09,1.08,1.56Z"/>
        <polygon class="cls-1" points="30.26 1.91 30.26 1.86 30.2 1.13 24.59 1.19 24.65 1.91 30.26 1.91"/>
        <path class="cls-1" d="M23.72,3.92l.06.73,3.33-.06h.43c-.23,1.82-.94,3.06-2.25,3.97-.18.12-.37.23-.58.33,0,0,.01,0,.02.01-.02,0-.03.02-.05.03.17.13.42.36.53.48l.03.03.04-.02c1.75-.88,2.8-2.45,3.07-4.62.12-.01.21-.06.21-.17l3.17-.05-.06-.73-7.95.06Z"/>
        <path class="cls-1" d="M41.43.16l-.3.32h0s0,0,0,0l-.04.04c.38.34.88.93,1.18,1.41l.03.05.05-.04.37-.34c-.27-.46-.76-1.04-1.29-1.45Z"/>
        <path class="cls-1" d="M42.01,2.94l-2.08.06h0l-.05-2c.15-.02.22-.11.22-.23,0,0,0,0,0-.01h0s.02-.03,0-.06h-.95s-.06,0-.06,0l.06,2.24h0s-3.12.07-3.12.07h0l-.05-1.86c.17-.02.29-.13.25-.32h-.96s0,0,0,0h-.06s.06,2.13.06,2.13l-2.02.06.06.74,1.9-.06.06,2.53.77-.06-.06-2.4v-.02l3.12-.06v.68c0,1.34-.29,2.96-2.3,4.18-.21.12-.42.23-.66.34,0,0,.01.01.02.01-.02,0-.03.02-.05.03.15.13.37.33.5.49l.03.03.04-.02c2.21-1,3.24-2.61,3.24-5.08l-.06-.61,2.2-.06-.06-.74Z"/>
        <path class="cls-1" d="M40.13,1.32l-.04.04c.38.34.87.93,1.16,1.4l.03.05.05-.04.38-.34c-.27-.44-.76-1.03-1.28-1.44l-.3.32h0s0,0,0,0Z"/>
        <path class="cls-1" d="M43.76,5.56c-.23.12-.47.24-.7.35,0,0,0,0,.01.01-.02,0-.03.02-.05.03.13.13.31.37.49.56,1.32-.65,2.67-1.43,3.73-2.17l.06,5.09h.79l-.05-5.37c.13-.01.24-.08.24-.24-.03-.01-.09-.04-.15-.04-.02,0-.04,0-.06.01,1.06-.77,2.12-1.66,2.78-2.36.05.01.08.01.11.01.1,0,.18-.03.22-.18l-.83-.55c-1.5,1.64-4.11,3.54-6.59,4.86Z"/>
        <path class="cls-1" d="M59.94,2.56s-.02-.01-.03-.02c0,0,0,0,0,0-.02,0-.03-.02-.05-.03-1.11,2.56-3.23,4.42-6.3,5.61-.25.09-.5.19-.76.27h0s-.04.03-.05.03l.57.82.04-.03c.08-.05.16-.16.13-.23,3.37-1.12,5.83-3.21,7.09-6.11-.18-.09-.39-.21-.65-.34Z"/>
        <path class="cls-1" d="M55.41,3.5l.05.04.03-.05.36-.71c-.69-.48-1.84-1-3.06-1.34l-.25.59-.02.04s0,0,0,0l-.02.05c.9.31,2.13.83,2.91,1.38Z"/>
      </g>
    </g>
  </g>
</svg>